<?xml version="1.0" encoding="utf-8"?>
<!-- Generator: Adobe Illustrator 19.0.0, SVG Export Plug-In . SVG Version: 6.00 Build 0)  -->
<svg version="1.1" id="Capa_1" xmlns="http://www.w3.org/2000/svg" xmlns:xlink="http://www.w3.org/1999/xlink" x="0px" y="0px"
	 viewBox="1597.4 -414.5 1303 1303" style="enable-background:new 1597.4 -414.5 1303 1303;" xml:space="preserve">
<style type="text/css">
	.st0{fill:#FFFFFF;}
</style>
<path class="st0" d="M2828.5-414.5H1669.3c-39.7,0-71.9,32.2-71.9,71.9V816.5c0,39.7,32.2,71.9,71.9,71.9h624V383.9h-169.8V187.2
	h169.8v-145c0-168.3,102.8-259.9,252.9-259.9c71.9,0,133.7,5.4,151.7,7.7v175.9l-104.1,0c-81.7,0-97.5,38.8-97.5,95.7v125.6h194.7
	l-25.4,196.6h-169.4v504.6h332c39.7,0,71.9-32.2,71.9-71.9V-342.6C2900.4-382.3,2868.2-414.5,2828.5-414.5L2828.5-414.5z"/>
</svg>
