<?xml version="1.0" encoding="utf-8"?>
<!-- Generator: Adobe Illustrator 19.0.0, SVG Export Plug-In . SVG Version: 6.00 Build 0)  -->
<svg version="1.1" id="Layer_1" xmlns="http://www.w3.org/2000/svg" xmlns:xlink="http://www.w3.org/1999/xlink" x="0px" y="0px"
	 viewBox="-45.2 195.2 125.1 125.1" style="enable-background:new -45.2 195.2 125.1 125.1;" xml:space="preserve">
<style type="text/css">
	.st0{fill:#FFFFFF;}
</style>
<g id="Layer_1_1_">
</g>
<g id="Layer_3">
</g>
<g id="Layer_4">
</g>
<g id="Layer_2">
	<g>
		
			<rect x="8.5" y="249.3" transform="matrix(-0.9482 0.3176 -0.3176 -0.9482 115.5787 496.7492)" class="st0" width="17.6" height="17"/>
		<g>
			
				<rect x="8.5" y="249.3" transform="matrix(-0.9482 0.3176 -0.3176 -0.9482 115.5787 496.7492)" class="st0" width="17.6" height="17"/>
			<path class="st0" d="M74.6,240.5c-12.9-43-31.5-53-74.5-40.1c-43,12.9-53,31.5-40.1,74.5s31.5,53,74.5,40.1
				S87.5,283.5,74.6,240.5z M52.9,268.4l-8.1,2.7l2.8,8.4c1.1,3.4-0.7,7.1-4.1,8.2c-0.7,0.2-1.5,0.4-2.2,0.3c-2.6-0.1-5.1-1.8-6-4.4
				l-2.8-8.4l-16.7,5.6l2.8,8.4c1.1,3.4-0.7,7.1-4.1,8.2c-0.7,0.2-1.5,0.4-2.2,0.3c-2.6-0.1-5.1-1.8-6-4.4l-2.8-8.4l-8.1,2.7
				c-0.7,0.2-1.5,0.4-2.2,0.3c-2.6-0.1-5.1-1.8-6-4.4c-1.1-3.4,0.7-7.1,4.1-8.2l8.1-2.7L-6,256.5l-8.1,2.7c-0.7,0.2-1.5,0.4-2.2,0.3
				c-2.6-0.1-5.1-1.8-6-4.4c-1.1-3.4,0.7-7.1,4.1-8.2l8.1-2.7l-2.8-8.4c-1.1-3.4,0.7-7.1,4.1-8.2c3.4-1.1,7.1,0.7,8.2,4.1l2.8,8.4
				l16.7-5.6l-2.8-8.4c-1.1-3.4,0.7-7.1,4.1-8.2c3.4-1.1,7.1,0.7,8.2,4.1l2.8,8.4l8.1-2.7c3.4-1.1,7.1,0.7,8.2,4.1
				c1.1,3.4-0.7,7.1-4.1,8.2l-8.1,2.7l5.4,16.1l8.1-2.7c3.4-1.1,7.1,0.7,8.2,4.1C58.1,263.6,56.3,267.3,52.9,268.4z"/>
		</g>
	</g>
</g>
</svg>
